<svg width="58" height="19" viewBox="0 0 58 19" fill="none" xmlns="http://www.w3.org/2000/svg">
<path d="M0.5 5.64773V3.36364H10.3352V5.64773H6.80682V15H4.03409V5.64773H0.5ZM11.7088 15V3.36364H16.5156C17.3868 3.36364 18.1387 3.52083 18.7713 3.83523C19.4077 4.14583 19.8982 4.5928 20.2429 5.17614C20.5876 5.75568 20.7599 6.44318 20.7599 7.23864C20.7599 8.04545 20.5838 8.73106 20.2315 9.29545C19.8793 9.85606 19.3793 10.2841 18.7315 10.5795C18.0838 10.8712 17.3168 11.017 16.4304 11.017H13.3906V8.80114H15.9077C16.3319 8.80114 16.6861 8.74621 16.9702 8.63636C17.258 8.52273 17.4759 8.35227 17.6236 8.125C17.7713 7.89394 17.8452 7.59848 17.8452 7.23864C17.8452 6.87879 17.7713 6.58144 17.6236 6.34659C17.4759 6.10795 17.258 5.92992 16.9702 5.8125C16.6823 5.69129 16.3281 5.63068 15.9077 5.63068H14.5213V15H11.7088ZM18.2599 9.68182L21.1577 15H18.0895L15.2486 9.68182H18.2599ZM29.3423 3.36364H32.1491V10.8693C32.1491 11.7367 31.9427 12.4924 31.5298 13.1364C31.117 13.7765 30.5412 14.2727 29.8026 14.625C29.0639 14.9735 28.206 15.1477 27.2287 15.1477C26.2401 15.1477 25.3764 14.9735 24.6378 14.625C23.8991 14.2727 23.3253 13.7765 22.9162 13.1364C22.5071 12.4924 22.3026 11.7367 22.3026 10.8693V3.36364H25.1151V10.625C25.1151 11.0265 25.2022 11.3845 25.3764 11.6989C25.5545 12.0133 25.8026 12.2595 26.1207 12.4375C26.4389 12.6155 26.8082 12.7045 27.2287 12.7045C27.6491 12.7045 28.0166 12.6155 28.331 12.4375C28.6491 12.2595 28.8973 12.0133 29.0753 11.6989C29.2533 11.3845 29.3423 11.0265 29.3423 10.625V3.36364ZM44.4744 7.57955H41.6335C41.5956 7.28788 41.518 7.02462 41.4006 6.78977C41.2831 6.55492 41.1278 6.35417 40.9347 6.1875C40.7415 6.02083 40.5123 5.89394 40.2472 5.80682C39.9858 5.71591 39.696 5.67045 39.3778 5.67045C38.8134 5.67045 38.3267 5.80871 37.9176 6.08523C37.5123 6.36174 37.1998 6.76136 36.9801 7.28409C36.7642 7.80682 36.6562 8.43939 36.6562 9.18182C36.6562 9.95455 36.7661 10.6023 36.9858 11.125C37.2093 11.6439 37.5218 12.036 37.9233 12.3011C38.3286 12.5625 38.8078 12.6932 39.3608 12.6932C39.6714 12.6932 39.9536 12.6534 40.2074 12.5739C40.465 12.4943 40.6903 12.3788 40.8835 12.2273C41.0805 12.072 41.2415 11.8845 41.3665 11.6648C41.4953 11.4413 41.5843 11.1894 41.6335 10.9091L44.4744 10.9261C44.4252 11.4413 44.2756 11.9489 44.0256 12.4489C43.7794 12.9489 43.4403 13.4053 43.0085 13.8182C42.5767 14.2273 42.0502 14.553 41.429 14.7955C40.8116 15.0379 40.1032 15.1591 39.304 15.1591C38.2509 15.1591 37.3078 14.928 36.4744 14.4659C35.6449 14 34.9896 13.322 34.5085 12.4318C34.0275 11.5417 33.7869 10.4583 33.7869 9.18182C33.7869 7.90152 34.0312 6.81629 34.5199 5.92614C35.0085 5.03598 35.6695 4.35985 36.5028 3.89773C37.3362 3.43561 38.2699 3.20455 39.304 3.20455C40.0085 3.20455 40.66 3.30303 41.2585 3.5C41.857 3.69318 42.3835 3.97727 42.8381 4.35227C43.2926 4.72348 43.6619 5.17992 43.946 5.72159C44.2301 6.26326 44.4062 6.88258 44.4744 7.57955ZM46.0838 15V3.36364H54.1974V5.64773H48.8963V8.03409H53.7827V10.3239H48.8963V12.7159H54.1974V15H46.0838Z" fill="white"/>
<line y1="9.5" x2="58" y2="9.5" stroke="#82F924"/>
</svg>
